<?xml version="1.0" encoding="UTF-8"?>
<!-- Generated by Pixelmator Pro 2.4.7 -->
<svg width="300" height="80" viewBox="0 0 300 80" xmlns="http://www.w3.org/2000/svg" xmlns:xlink="http://www.w3.org/1999/xlink">
    <path id="Path" fill="#3b82f6" stroke="none" d="M 79.981499 48.9743 C 78.509399 48.9743 77.178497 48.641602 75.988701 47.976101 C 74.819099 47.290501 73.881401 46.372997 73.175598 45.223499 C 72.489998 44.053898 72.147202 42.7533 72.147202 41.321499 C 72.147202 39.889797 72.489998 38.609299 73.175598 37.48 C 73.861298 36.330601 74.798897 35.4231 75.988701 34.757698 C 77.178497 34.072098 78.499298 33.729198 79.951195 33.729198 C 81.443497 33.729198 82.774399 34.072098 83.944 34.757698 C 85.133698 35.4231 86.071404 36.330601 86.757004 37.48 C 87.442703 38.609299 87.7855 39.889797 87.7855 41.321499 C 87.7855 42.7533 87.442703 44.053898 86.757004 45.223499 C 86.071404 46.372997 85.133698 47.290501 83.944 47.976101 C 82.774399 48.641602 81.453499 48.9743 79.981499 48.9743 Z M 79.951195 45.284 C 80.697296 45.284 81.352699 45.1227 81.917297 44.800098 C 82.502098 44.457298 82.945801 43.993401 83.248299 43.4086 C 83.5709 42.803699 83.732201 42.118099 83.732201 41.351799 C 83.732201 40.585499 83.5709 39.909901 83.248299 39.325199 C 82.925598 38.740398 82.482002 38.286598 81.917297 37.964001 C 81.352699 37.621201 80.697296 37.449799 79.951195 37.449799 C 79.225296 37.449799 78.580002 37.621201 78.015297 37.964001 C 77.450699 38.286598 77.007095 38.740398 76.684395 39.325199 C 76.361801 39.909901 76.200401 40.585499 76.200401 41.351799 C 76.200401 42.118099 76.361801 42.803699 76.684395 43.4086 C 77.007095 43.993401 77.450699 44.457298 78.015297 44.800098 C 78.580002 45.1227 79.225296 45.284 79.951195 45.284 Z"/>
    <path id="path1" fill="#3b82f6" stroke="none" d="M 99.047897 48.9743 C 97.999298 48.9743 97.051598 48.7626 96.204597 48.3391 C 95.357697 47.8955 94.682098 47.300598 94.178001 46.554501 C 93.673897 45.8083 93.401604 44.951298 93.361298 43.983398 L 93.361298 38.810898 C 93.401604 37.842999 93.673897 36.986 94.178001 36.239799 C 94.702301 35.473598 95.3778 34.868599 96.204597 34.424999 C 97.051598 33.9813 97.999298 33.759499 99.047897 33.759499 C 100.399002 33.759499 101.608902 34.092201 102.677696 34.757698 C 103.746498 35.4231 104.583298 36.330601 105.188301 37.48 C 105.8134 38.629398 106.125999 39.930099 106.125999 41.382 C 106.125999 42.813801 105.8134 44.104401 105.188301 45.253799 C 104.583298 46.403198 103.746498 47.310699 102.677696 47.976101 C 101.608902 48.641602 100.399002 48.9743 99.047897 48.9743 Z M 98.352203 45.314301 C 99.078201 45.314301 99.723503 45.153 100.288101 44.830299 C 100.852699 44.487499 101.286301 44.023701 101.588799 43.4389 C 101.9114 42.8339 102.0728 42.138199 102.0728 41.351799 C 102.0728 40.585499 101.9114 39.909901 101.588799 39.325199 C 101.286301 38.7202 100.852699 38.256397 100.288101 37.933701 C 99.723503 37.5909 99.078201 37.419498 98.352203 37.419498 C 97.6464 37.419498 97.0112 37.5909 96.446602 37.933701 C 95.882004 38.256397 95.438301 38.7202 95.1157 39.325199 C 94.813202 39.909901 94.662003 40.585499 94.662003 41.351799 C 94.662003 42.138199 94.813202 42.8339 95.1157 43.4389 C 95.438301 44.023701 95.871902 44.487499 96.416397 44.830299 C 96.981003 45.153 97.626297 45.314301 98.352203 45.314301 Z M 90.941399 54.781898 L 90.941399 34.062 L 94.9039 34.062 L 94.9039 37.9035 L 94.238503 41.442497 L 94.873703 44.981598 L 94.873703 54.781898 L 90.941399 54.781898 Z"/>
    <path id="path2" fill="#3b82f6" stroke="none" d="M 116.316299 48.9743 C 114.783699 48.9743 113.4226 48.651699 112.232803 48.006401 C 111.043098 47.3409 110.095299 46.433498 109.389503 45.284 C 108.703903 44.134598 108.361099 42.823898 108.361099 41.351799 C 108.361099 39.899899 108.693802 38.609299 109.3592 37.48 C 110.044899 36.330601 110.972504 35.4231 112.142097 34.757698 C 113.311699 34.072098 114.612297 33.729198 116.044098 33.729198 C 117.456001 33.729198 118.695999 34.051899 119.764999 34.697201 C 120.853996 35.3223 121.699997 36.1894 122.305 37.2985 C 122.931 38.387501 123.242996 39.627598 123.242996 41.018997 C 123.242996 41.2812 123.223 41.553398 123.182999 41.835697 C 123.162003 42.0979 123.112 42.400398 123.030998 42.743198 L 110.750702 42.773399 L 110.750702 39.809097 L 121.185997 39.7789 L 119.583 41.018997 C 119.542999 40.151897 119.380997 39.425999 119.098999 38.841198 C 118.836998 38.256397 118.444 37.812698 117.918999 37.5103 C 117.415001 37.187599 116.790199 37.026299 116.044098 37.026299 C 115.257599 37.026299 114.571999 37.207798 113.987198 37.570801 C 113.402397 37.913601 112.9487 38.4076 112.625999 39.052898 C 112.323601 39.677998 112.172302 40.424198 112.172302 41.291298 C 112.172302 42.1786 112.333603 42.954899 112.656303 43.620399 C 112.9991 44.265697 113.483101 44.769798 114.1082 45.132797 C 114.733299 45.475597 115.459297 45.646999 116.286102 45.646999 C 117.031998 45.646999 117.708 45.525997 118.313004 45.284 C 118.917999 45.0219 119.442001 44.638699 119.886002 44.134598 L 122.214996 46.463699 C 121.509003 47.290501 120.641998 47.9156 119.612999 48.3391 C 118.605003 48.7626 117.505997 48.9743 116.316299 48.9743 Z"/>
    <path id="path3" fill="#3b82f6" stroke="none" d="M 125.904999 48.671799 L 125.904999 40.383801 C 125.904999 39.073097 126.188004 37.923698 126.751999 36.935497 C 127.336998 35.927299 128.134003 35.1408 129.141998 34.576199 C 130.150009 34.0116 131.330002 33.729198 132.681 33.729198 C 134.031998 33.729198 135.212006 34.0116 136.220001 34.576199 C 137.248001 35.120701 138.035004 35.896999 138.57901 36.9053 C 139.143997 37.893398 139.42601 39.052898 139.42601 40.383801 L 139.42601 48.671799 L 135.464005 48.671799 L 135.464005 40.5653 C 135.464005 39.597401 135.222 38.8311 134.738007 38.266499 C 134.274002 37.681698 133.587997 37.389297 132.681 37.389297 C 131.774002 37.389297 131.078003 37.681698 130.594009 38.266499 C 130.130005 38.8311 129.89801 39.597401 129.89801 40.5653 L 129.89801 48.671799 L 125.904999 48.671799 Z"/>
    <path id="path4" fill="#3b82f6" stroke="none" d="M 154.684006 49.004601 C 153.856995 49.004601 153.041 48.8936 152.233994 48.671799 C 151.447998 48.450001 150.722 48.147499 150.056 47.7644 C 149.391006 47.361099 148.815994 46.877102 148.332001 46.3125 L 150.690994 43.922901 C 151.195999 44.487499 151.779999 44.910999 152.445999 45.193302 C 153.110992 45.475601 153.847 45.616802 154.654007 45.616802 C 155.298996 45.616802 155.783005 45.526001 156.106003 45.344501 C 156.449005 45.163002 156.619995 44.8908 156.619995 44.527802 C 156.619995 44.1245 156.438995 43.812 156.076004 43.590099 C 155.733002 43.368301 155.279007 43.186802 154.714005 43.0457 C 154.149994 42.8843 153.554993 42.712902 152.929993 42.531502 C 152.324997 42.3298 151.740005 42.077702 151.175003 41.775299 C 150.610992 41.452602 150.147003 41.019001 149.783997 40.474602 C 149.440994 39.909901 149.270004 39.184002 149.270004 38.2967 C 149.270004 37.369102 149.492004 36.5625 149.934998 35.8769 C 150.399002 35.1912 151.054001 34.656902 151.901001 34.273701 C 152.748001 33.890602 153.746002 33.699001 154.895996 33.699001 C 156.106003 33.699001 157.195007 33.910702 158.162994 34.334202 C 159.151001 34.757702 159.968002 35.392902 160.613007 36.239799 L 158.223007 38.629402 C 157.779999 38.084999 157.274994 37.691799 156.710999 37.449802 C 156.166 37.207802 155.570999 37.0868 154.925995 37.0868 C 154.341003 37.0868 153.888 37.177502 153.565002 37.359001 C 153.263 37.540501 153.110992 37.792603 153.110992 38.1152 C 153.110992 38.478203 153.283005 38.760502 153.625 38.9622 C 153.988007 39.163799 154.451996 39.345303 155.016998 39.506599 C 155.582001 39.6478 156.166 39.819202 156.770996 40.020901 C 157.395996 40.202301 157.981003 40.4645 158.526001 40.807301 C 159.089996 41.150101 159.544006 41.603802 159.886993 42.168503 C 160.25 42.733101 160.431 43.459103 160.431 44.346302 C 160.431 45.778099 159.917007 46.9174 158.889008 47.7644 C 157.860001 48.591202 156.459 49.004601 154.684006 49.004601 Z"/>
    <path id="path5" fill="#3b82f6" stroke="none" d="M 169.817993 48.9743 C 168.487 48.9743 167.287994 48.641602 166.218994 47.976101 C 165.149994 47.310699 164.313004 46.403202 163.707993 45.253799 C 163.102997 44.104401 162.800995 42.813801 162.800995 41.382 C 162.800995 39.930099 163.102997 38.629402 163.707993 37.48 C 164.313004 36.330601 165.149994 35.4231 166.218994 34.757702 C 167.287994 34.092201 168.487 33.759499 169.817993 33.759499 C 170.867004 33.759499 171.804993 33.971199 172.630997 34.394699 C 173.457993 34.818199 174.113998 35.413101 174.598007 36.179302 C 175.102005 36.925503 175.373993 37.7724 175.414001 38.7202 L 175.414001 43.983402 C 175.373993 44.951302 175.102005 45.8083 174.598007 46.554501 C 174.113998 47.300602 173.457993 47.8955 172.630997 48.3391 C 171.804993 48.7626 170.867004 48.9743 169.817993 48.9743 Z M 170.544006 45.314301 C 171.653 45.314301 172.550995 44.951302 173.235992 44.2253 C 173.921997 43.479202 174.264999 42.5214 174.264999 41.351803 C 174.264999 40.585503 174.104004 39.909901 173.781006 39.325199 C 173.477997 38.7202 173.044998 38.256401 172.479996 37.933701 C 171.936005 37.5909 171.289993 37.419502 170.544006 37.419502 C 169.817993 37.419502 169.173004 37.5909 168.608002 37.933701 C 168.063995 38.256401 167.630005 38.7202 167.307999 39.325199 C 167.005005 39.909901 166.854004 40.585503 166.854004 41.351803 C 166.854004 42.138203 167.005005 42.8339 167.307999 43.4389 C 167.630005 44.023701 168.063995 44.487499 168.608002 44.830299 C 169.173004 45.153 169.817993 45.314301 170.544006 45.314301 Z M 174.052994 48.671799 L 174.052994 44.739601 L 174.688004 41.1703 L 174.052994 37.661503 L 174.052994 34.062 L 177.985001 34.062 L 177.985001 48.671799 L 174.052994 48.671799 Z"/>
    <path id="path6" fill="#3b82f6" stroke="none" d="M 181.703003 48.671799 L 181.703003 40.383801 C 181.703003 39.073097 181.985001 37.923698 182.550003 36.935497 C 183.134003 35.927299 183.931 35.1408 184.938995 34.576199 C 185.947006 34.0116 187.126999 33.729198 188.477997 33.729198 C 189.828995 33.729198 191.009003 34.0116 192.016998 34.576199 C 193.046005 35.120701 193.832001 35.896999 194.376999 36.9053 C 194.940994 37.893398 195.223999 39.052898 195.223999 40.383801 L 195.223999 48.671799 L 191.261002 48.671799 L 191.261002 40.5653 C 191.261002 39.597401 191.018997 38.8311 190.535004 38.266499 C 190.070999 37.681698 189.386002 37.389297 188.477997 37.389297 C 187.570999 37.389297 186.875 37.681698 186.391006 38.266499 C 185.927002 38.8311 185.695007 39.597401 185.695007 40.5653 L 185.695007 48.671799 L 181.703003 48.671799 Z"/>
    <path id="path7" fill="#3b82f6" stroke="none" d="M 205.843994 48.9743 C 204.352005 48.9743 203.011002 48.641602 201.820999 47.976101 C 200.630997 47.310699 199.692993 46.403198 199.007996 45.253799 C 198.322006 44.104401 197.979004 42.813801 197.979004 41.382 C 197.979004 39.930099 198.322006 38.629398 199.007996 37.48 C 199.692993 36.330601 200.630997 35.4231 201.820999 34.757698 C 203.031006 34.072098 204.371994 33.729198 205.843994 33.729198 C 206.992996 33.729198 208.052002 33.940998 209.020004 34.364498 C 209.988007 34.787899 210.824997 35.392899 211.531006 36.179298 L 208.990005 38.750401 C 208.606995 38.327 208.143005 38.004299 207.598007 37.782497 C 207.074005 37.560699 206.488998 37.449799 205.843994 37.449799 C 205.117996 37.449799 204.462997 37.621201 203.878006 37.964001 C 203.313004 38.286598 202.858994 38.740398 202.516998 39.325199 C 202.194 39.889797 202.033005 40.5653 202.033005 41.351799 C 202.033005 42.118099 202.194 42.803699 202.516998 43.4086 C 202.858994 43.993401 203.313004 44.457298 203.878006 44.800098 C 204.462997 45.1227 205.117996 45.284 205.843994 45.284 C 206.509003 45.284 207.104004 45.1731 207.628998 44.951298 C 208.173004 44.709297 208.636993 44.366501 209.020004 43.922897 L 211.591003 46.493999 C 210.845001 47.300598 209.988007 47.9156 209.020004 48.3391 C 208.052002 48.7626 206.992996 48.9743 205.843994 48.9743 Z"/>
    <path id="path8" fill="#3b82f6" stroke="none" d="M 221.766006 48.9743 C 220.716995 48.9743 219.779007 48.7626 218.953003 48.3391 C 218.145996 47.9156 217.501007 47.300602 217.016998 46.493999 C 216.552994 45.687302 216.320999 44.709301 216.320999 43.559902 L 216.320999 27.982101 L 220.313995 27.982101 L 220.313995 43.559902 C 220.313995 44.144699 220.485001 44.588303 220.828003 44.8908 C 221.171005 45.193302 221.574005 45.344501 222.037994 45.344501 C 222.421005 45.344501 222.753998 45.284 223.035995 45.163002 C 223.319 45.0219 223.580994 44.830299 223.822998 44.588303 L 226.242004 47.008202 C 225.677994 47.6535 225.052994 48.147499 224.367004 48.490299 C 223.701996 48.813 222.835007 48.9743 221.766006 48.9743 Z M 212.964005 37.601002 L 212.964005 34.062 L 225.335007 34.062 L 225.335007 37.601002 L 212.964005 37.601002 Z"/>
    <path id="path9" fill="#3b82f6" stroke="none" d="M 229.016998 48.671799 L 229.016998 34.062 L 233.009995 34.062 L 233.009995 48.671799 L 229.016998 48.671799 Z M 231.013 31.702599 C 230.367996 31.702599 229.834 31.490898 229.410004 31.067398 C 228.987 30.623798 228.774994 30.0793 228.774994 29.433998 C 228.774994 28.808891 228.987 28.274498 229.410004 27.83086 C 229.834 27.38723 230.367996 27.165409 231.013 27.165409 C 231.679001 27.165409 232.212997 27.38723 232.617004 27.83086 C 233.039993 28.274498 233.251999 28.808891 233.251999 29.433998 C 233.251999 30.0793 233.039993 30.623798 232.617004 31.067398 C 232.212997 31.490898 231.679001 31.702599 231.013 31.702599 Z"/>
    <path id="path10" fill="#3b82f6" stroke="none" d="M 243.990997 48.9743 C 242.518997 48.9743 241.188004 48.641602 239.998993 47.976101 C 238.828995 47.290501 237.891006 46.372997 237.184998 45.223499 C 236.5 44.053898 236.156998 42.7533 236.156998 41.321499 C 236.156998 39.889797 236.5 38.609299 237.184998 37.48 C 237.871002 36.330601 238.809006 35.4231 239.998993 34.757698 C 241.188004 34.072098 242.509003 33.729198 243.960999 33.729198 C 245.453003 33.729198 246.783997 34.072098 247.953995 34.757698 C 249.143997 35.4231 250.080994 36.330601 250.766998 37.48 C 251.451996 38.609299 251.794998 39.889797 251.794998 41.321499 C 251.794998 42.7533 251.451996 44.053898 250.766998 45.223499 C 250.080994 46.372997 249.143997 47.290501 247.953995 47.976101 C 246.783997 48.641602 245.462997 48.9743 243.990997 48.9743 Z M 243.960999 45.284 C 244.707001 45.284 245.363007 45.1227 245.927002 44.800098 C 246.511993 44.457298 246.955994 43.993401 247.257996 43.4086 C 247.580994 42.803699 247.742004 42.118099 247.742004 41.351799 C 247.742004 40.585499 247.580994 39.909901 247.257996 39.325199 C 246.934998 38.740398 246.492004 38.286598 245.927002 37.964001 C 245.363007 37.621201 244.707001 37.449799 243.960999 37.449799 C 243.235001 37.449799 242.589996 37.621201 242.024994 37.964001 C 241.460999 38.286598 241.016998 38.740398 240.694 39.325199 C 240.371994 39.909901 240.210007 40.585499 240.210007 41.351799 C 240.210007 42.118099 240.371994 42.803699 240.694 43.4086 C 241.016998 43.993401 241.460999 44.457298 242.024994 44.800098 C 242.589996 45.1227 243.235001 45.284 243.960999 45.284 Z"/>
    <path id="path11" fill="#3b82f6" stroke="none" d="M 254.557999 48.671799 L 254.557999 40.383801 C 254.557999 39.073097 254.839996 37.923698 255.404999 36.935497 C 255.990005 35.927299 256.78598 35.1408 257.794983 34.576199 C 258.802979 34.0116 259.983002 33.729198 261.333984 33.729198 C 262.684998 33.729198 263.863983 34.0116 264.872986 34.576199 C 265.901001 35.120701 266.687988 35.896999 267.231995 36.9053 C 267.796997 37.893398 268.078979 39.052898 268.078979 40.383801 L 268.078979 48.671799 L 264.115997 48.671799 L 264.115997 40.5653 C 264.115997 39.597401 263.873993 38.8311 263.389984 38.266499 C 262.927002 37.681698 262.240997 37.389297 261.333984 37.389297 C 260.425995 37.389297 259.72998 37.681698 259.246002 38.266499 C 258.78299 38.8311 258.550995 39.597401 258.550995 40.5653 L 258.550995 48.671799 L 254.557999 48.671799 Z"/>
    <path id="path12" fill="#3b82f6" stroke="none" d="M 276.824005 49.004601 C 275.997009 49.004601 275.181 48.8936 274.373993 48.671799 C 273.587006 48.450001 272.860992 48.147499 272.195984 47.7644 C 271.531006 47.361099 270.955994 46.877102 270.471985 46.3125 L 272.830994 43.922901 C 273.334991 44.487499 273.920013 44.910999 274.585999 45.193302 C 275.251007 45.475601 275.987 45.616802 276.794006 45.616802 C 277.438995 45.616802 277.923004 45.526001 278.246002 45.344501 C 278.588013 45.163002 278.76001 44.8908 278.76001 44.527802 C 278.76001 44.1245 278.578003 43.812 278.214996 43.590099 C 277.872986 43.368301 277.419006 43.186802 276.854004 43.0457 C 276.290009 42.8843 275.695007 42.712902 275.070007 42.531502 C 274.464996 42.3298 273.880005 42.077702 273.315002 41.775299 C 272.751007 41.452602 272.286987 41.019001 271.923981 40.474602 C 271.580994 39.909901 271.410004 39.184002 271.410004 38.2967 C 271.410004 37.369102 271.630981 36.5625 272.074982 35.8769 C 272.539001 35.1912 273.194 34.656902 274.040985 34.273701 C 274.888 33.890602 275.885986 33.699001 277.036011 33.699001 C 278.246002 33.699001 279.334991 33.910702 280.303009 34.334202 C 281.290985 34.757702 282.106995 35.392902 282.752991 36.239799 L 280.363007 38.629402 C 279.919006 38.084999 279.415009 37.691799 278.851013 37.449802 C 278.306 37.207802 277.710999 37.0868 277.06601 37.0868 C 276.480988 37.0868 276.027008 37.177502 275.704987 37.359001 C 275.402008 37.540501 275.251007 37.792603 275.251007 38.1152 C 275.251007 38.478203 275.421997 38.760502 275.765015 38.9622 C 276.127991 39.163799 276.59201 39.345303 277.157013 39.506599 C 277.721008 39.6478 278.306 39.819202 278.911011 40.020901 C 279.536011 40.202301 280.121002 40.4645 280.665009 40.807301 C 281.230011 41.150101 281.68399 41.603802 282.027008 42.168503 C 282.390015 42.733101 282.571014 43.459103 282.571014 44.346302 C 282.571014 45.778099 282.057007 46.9174 281.028015 47.7644 C 280 48.591202 278.598999 49.004601 276.824005 49.004601 Z"/>
    <path id="path13" fill="#3b82f6" stroke="none" d="M 42.208302 47.538097 C 42.208302 44.766598 39.951302 42.519897 37.167103 42.519897 C 34.3829 42.519897 32.1259 44.766598 32.1259 47.538097 C 32.1259 50.309601 34.3829 52.556301 37.167103 52.556301 C 39.951302 52.556301 42.208302 50.309601 42.208302 47.538097 Z"/>
    <path id="path14" fill="#3b82f6" fill-rule="evenodd" stroke="none" d="M 37.166199 47.5369 L 32.1259 47.538097 C 32.1259 42.519798 27.0825 37.499199 22.041279 37.499199 L 22.04236 32.481998 L 27.0825 32.4809 C 27.0825 37.540398 32.125801 42.519897 37.167099 42.519897 L 37.166199 47.5369 Z"/>
    <path id="path15" fill="#3b82f6" fill-rule="evenodd" stroke="none" d="M 37.167103 32.483101 L 42.209301 32.482098 C 42.209301 37.500401 47.251602 42.519798 52.2929 42.519798 L 52.290901 47.537998 L 47.251602 47.537998 C 47.251602 42.4785 42.209301 37.500401 37.167999 37.500401 L 37.167103 32.483101 Z"/>
    <path id="path16" fill="#3b82f6" stroke="none" d="M 37.167999 37.500401 C 39.952202 37.500401 42.209301 35.253597 42.209301 32.482098 C 42.209301 29.710499 39.951302 27.464691 37.167103 27.464691 C 34.3829 27.464691 32.1259 29.711399 32.1259 32.482998 C 32.1259 35.254498 34.383801 37.500401 37.167999 37.500401 Z"/>
    <path id="path17" fill="#3b82f6" stroke="none" d="M 37.167103 52.556301 C 39.951302 52.556301 42.208302 50.309601 42.208302 47.538097 C 42.208302 44.766598 39.951302 42.519897 37.167103 42.519897 C 34.3829 42.519897 32.1259 44.766598 32.1259 47.538097 C 32.1259 50.309601 34.3829 52.556301 37.167103 52.556301 Z"/>
    <path id="path18" fill="#3b82f6" stroke="none" d="M 28.244499 51.7341 C 27.1891 50.678699 27.0846 49.030502 27.0846 47.538002 C 27.0846 44.766399 24.827579 42.519699 22.04336 42.519699 C 19.25913 42.519699 17.002077 44.766399 17.002077 47.538002 C 17.002077 50.309601 19.25913 52.556301 22.04336 52.556301 C 23.530661 52.556301 25.16918 52.669102 26.22086 53.720798 L 30.817299 58.317299 C 34.3242 61.8241 40.009998 61.8241 43.5168 58.317299 L 48.112301 53.721802 C 49.163898 52.6702 50.803501 52.556301 52.290798 52.556301 C 55.075001 52.556301 57.332001 50.309601 57.332001 47.538002 C 57.332001 44.766399 55.0751 42.519699 52.290901 42.519699 C 49.506699 42.519699 47.249599 44.766399 47.249599 47.538002 C 47.249599 49.030602 47.143799 50.679901 46.088398 51.735298 L 41.5116 56.312099 C 39.112198 58.711498 35.221901 58.711498 32.822498 56.312099 L 28.244499 51.7341 Z"/>
    <path id="path19" fill="#3b82f6" stroke="none" d="M 47.2495 32.4832 C 47.2495 30.962498 47.1521 29.275799 46.076702 28.200439 L 41.5116 23.635342 C 39.112202 21.235901 35.221901 21.235901 32.822502 23.635342 L 28.2549 28.2029 C 27.180201 29.277599 27.0825 30.960999 27.0825 32.4809 C 27.0825 35.252399 24.82548 37.499199 22.041281 37.499199 C 19.257071 37.499199 17 35.253399 17 32.481899 C 17 29.7103 19.25705 27.463539 22.04125 27.463539 C 23.500761 27.463539 25.10516 27.342308 26.13718 26.31028 L 30.817301 21.63015 C 34.3242 18.12328 40.010002 18.123287 43.5168 21.630161 L 48.1973 26.310661 C 49.228802 27.342091 50.8321 27.464882 52.290798 27.464882 C 55.075001 27.464882 57.332001 29.7117 57.332001 32.4832 C 57.332001 35.2547 55.075001 37.501499 52.290798 37.501499 C 49.506599 37.501499 47.2495 35.2547 47.2495 32.4832 Z"/>
</svg>
